<svg width="286" height="55" viewBox="0 0 286 55" fill="none" xmlns="http://www.w3.org/2000/svg">
<path d="M-59.0661 52.3305C-58.0848 52.3305 -57.2291 52.1822 -56.4988 51.8855C-55.7458 51.5889 -55.1068 51.1781 -54.5819 50.6532C-54.0571 50.1284 -53.6235 49.5008 -53.2812 48.7706C-52.9161 48.0175 -52.6194 47.196 -52.3912 46.306L-52.2885 45.8953H-49.4132L-49.5159 46.306C-49.8582 47.6752 -50.2918 48.9075 -50.8166 50.0029C-51.3187 51.0754 -51.9576 51.9882 -52.7335 52.7413C-53.4866 53.4715 -54.4108 54.0306 -55.5062 54.4185C-56.6015 54.8065 -57.9023 55.0004 -59.4084 55.0004C-60.5266 55.0004 -61.5078 54.8407 -62.3522 54.5212C-63.1965 54.2017 -63.9153 53.7568 -64.5087 53.1863C-65.0792 52.5929 -65.5127 51.8969 -65.8094 51.0982C-66.1061 50.2995 -66.2544 49.4095 -66.2544 48.4283C-66.2544 47.9491 -66.2316 47.447 -66.1859 46.9222C-66.1175 46.3745 -66.0262 45.804 -65.9121 45.2107L-64.7825 39.8708C-64.0979 36.6303 -62.9113 34.1886 -61.2226 32.5455C-59.5111 30.9025 -57.2633 30.081 -54.4793 30.081C-53.3839 30.081 -52.414 30.2407 -51.5697 30.5602C-50.7025 30.8797 -49.9837 31.3247 -49.4132 31.8952C-48.8199 32.4428 -48.3749 33.116 -48.0782 33.9147C-47.7588 34.6906 -47.599 35.535 -47.599 36.4478C-47.599 37.178 -47.7017 37.9539 -47.9071 38.7754L-48.0098 39.1862H-50.8851L-50.7824 38.7754C-50.6683 38.3418 -50.5998 37.9653 -50.577 37.6458C-50.5314 37.3035 -50.5086 36.9726 -50.5086 36.6531C-50.5086 35.4437 -50.8623 34.4852 -51.5697 33.7778C-52.2543 33.0476 -53.3725 32.6824 -54.9242 32.6824C-55.837 32.6824 -56.67 32.865 -57.423 33.2301C-58.1761 33.5952 -58.8493 34.1087 -59.4426 34.7705C-60.0359 35.4094 -60.5494 36.1853 -60.983 37.0981C-61.3937 37.9881 -61.7132 38.9808 -61.9414 40.0761L-63.0025 45.0053C-63.1166 45.5301 -63.2079 46.0208 -63.2764 46.4772C-63.322 46.9336 -63.3448 47.3671 -63.3448 47.7779C-63.3448 49.3068 -63.0025 50.4478 -62.3179 51.2009C-61.6333 51.954 -60.5494 52.3305 -59.0661 52.3305Z" fill="black"/>
<path d="M-43.9602 39.8708C-43.2984 36.676 -42.1346 34.2456 -40.4687 32.5798C-38.78 30.9139 -36.5209 30.081 -33.6912 30.081C-31.4776 30.081 -29.789 30.7199 -28.6251 31.9978C-27.4385 33.2529 -26.8452 34.9987 -26.8452 37.235C-26.8452 37.6914 -26.8794 38.1821 -26.9479 38.7069C-26.9935 39.209 -27.0734 39.7224 -27.1875 40.2473L-28.2486 45.2107C-28.9104 48.4055 -30.0856 50.8358 -31.7743 52.5017C-33.4402 54.1675 -35.6879 55.0004 -38.5176 55.0004C-40.7312 55.0004 -42.4313 54.3729 -43.6179 53.1178C-44.7817 51.8399 -45.3636 50.0827 -45.3636 47.8464C-45.3636 47.39 -45.3408 46.9107 -45.2952 46.4087C-45.2267 45.8838 -45.1354 45.359 -45.0213 44.8341L-43.9602 39.8708ZM-38.1069 52.399C-37.1712 52.399 -36.3269 52.2278 -35.5738 51.8855C-34.798 51.5204 -34.1248 51.0184 -33.5543 50.3794C-32.9609 49.7176 -32.4703 48.9417 -32.0824 48.0517C-31.6716 47.1389 -31.3407 46.1234 -31.0897 45.0053L-29.9943 39.8708C-29.8118 38.958 -29.7205 38.1593 -29.7205 37.4747C-29.7205 35.9914 -30.0856 34.8275 -30.8159 33.9832C-31.5461 33.116 -32.6415 32.6824 -34.1019 32.6824C-35.996 32.6824 -37.5249 33.3556 -38.6888 34.702C-39.8298 36.0484 -40.6399 37.8398 -41.1191 40.0761L-42.2145 45.2107C-42.397 46.1235 -42.4883 46.9222 -42.4883 47.6068C-42.4883 49.0901 -42.1232 50.2653 -41.3929 51.1325C-40.6627 51.9768 -39.5673 52.399 -38.1069 52.399Z" fill="black"/>
<path d="M-13.1769 53.2889H-12.7662L-7.93975 30.5602H-5.06442L-10.1647 54.5212H-15.8127L-17.1819 31.7925H-17.5926L-22.4191 54.5212H-25.2944L-20.1941 30.5602H-14.5462L-13.1769 53.2889Z" fill="black"/>
<path d="M-1.15176 30.5602H16.066V33.2301H9.11726L4.59888 54.5212H1.72356L6.24193 33.2301H-1.15176V30.5602Z" fill="black"/>
<path d="M30.6242 48.5652H21.0055L18.096 54.5212H14.8441L26.7219 30.5602H32.1987L33.9102 54.5212H31.0007L30.6242 48.5652ZM22.3063 45.8953H30.453L29.563 31.8267H29.1523L22.3063 45.8953Z" fill="black"/>
<path d="M45.73 52.3305C46.7113 52.3305 47.5671 52.1822 48.2973 51.8855C49.0504 51.5889 49.6893 51.1781 50.2142 50.6532C50.739 50.1284 51.1726 49.5008 51.5149 48.7706C51.88 48.0175 52.1767 47.196 52.4049 46.306L52.5076 45.8953H55.3829L55.2802 46.306C54.9379 47.6752 54.5043 48.9075 53.9795 50.0029C53.4774 51.0754 52.8385 51.9882 52.0626 52.7413C51.3095 53.4715 50.3853 54.0306 49.29 54.4185C48.1946 54.8065 46.8939 55.0004 45.3877 55.0004C44.2696 55.0004 43.2883 54.8407 42.444 54.5212C41.5996 54.2017 40.8808 53.7568 40.2875 53.1863C39.717 52.5929 39.2834 51.8969 38.9867 51.0982C38.6901 50.2995 38.5417 49.4095 38.5417 48.4283C38.5417 47.9491 38.5646 47.447 38.6102 46.9222C38.6786 46.3745 38.7699 45.804 38.884 45.2107L40.0136 39.8708C40.6982 36.6303 41.8849 34.1886 43.5736 32.5455C45.2851 30.9025 47.5328 30.081 50.3169 30.081C51.4122 30.081 52.3821 30.2407 53.2264 30.5602C54.0936 30.8797 54.8124 31.3247 55.3829 31.8952C55.9762 32.4428 56.4212 33.116 56.7179 33.9147C57.0374 34.6906 57.1971 35.535 57.1971 36.4478C57.1971 37.178 57.0944 37.9539 56.889 38.7754L56.7864 39.1862H53.911L54.0137 38.7754C54.1278 38.3418 54.1963 37.9653 54.2191 37.6458C54.2647 37.3035 54.2876 36.9726 54.2876 36.6531C54.2876 35.4437 53.9339 34.4852 53.2264 33.7778C52.5418 33.0476 51.4236 32.6824 49.8719 32.6824C48.9591 32.6824 48.1261 32.865 47.3731 33.2301C46.62 33.5952 45.9468 34.1087 45.3535 34.7705C44.7602 35.4094 44.2467 36.1853 43.8132 37.0981C43.4024 37.9881 43.0829 38.9808 42.8547 40.0761L41.7936 45.0053C41.6795 45.5301 41.5882 46.0208 41.5197 46.4772C41.4741 46.9336 41.4513 47.3671 41.4513 47.7779C41.4513 49.3068 41.7936 50.4478 42.4782 51.2009C43.1628 51.954 44.2467 52.3305 45.73 52.3305Z" fill="black"/>
<path d="M61.7259 30.5602H78.9436V33.2301H71.9949L67.4766 54.5212H64.6012L69.1196 33.2301H61.7259V30.5602Z" fill="black"/>
<path d="M-79.8117 22.2495C-78.8304 22.2495 -77.9747 22.1012 -77.2444 21.8045C-76.4914 21.5079 -75.8524 21.0971 -75.3275 20.5723C-74.8027 20.0474 -74.3691 19.4199 -74.0268 18.6896C-73.6617 17.9366 -73.365 17.115 -73.1368 16.225L-73.0341 15.8143H-70.1588L-70.2615 16.225C-70.6038 17.5943 -71.0374 18.8265 -71.5622 19.9219C-72.0643 20.9944 -72.7032 21.9072 -73.4791 22.6603C-74.2322 23.3905 -75.1564 23.9496 -76.2518 24.3376C-77.3471 24.7255 -78.6479 24.9195 -80.154 24.9195C-81.2722 24.9195 -82.2534 24.7597 -83.0978 24.4403C-83.9421 24.1208 -84.6609 23.6758 -85.2543 23.1053C-85.8248 22.512 -86.2583 21.816 -86.555 21.0173C-86.8517 20.2186 -87 19.3286 -87 18.3473C-87 17.8681 -86.9772 17.3661 -86.9315 16.8412C-86.8631 16.2935 -86.7718 15.723 -86.6577 15.1297L-85.5281 9.7898C-84.8435 6.54935 -83.6569 4.10761 -81.9682 2.46456C-80.2567 0.821521 -78.0089 0 -75.2249 0C-74.1295 0 -73.1596 0.15974 -72.3153 0.479221C-71.4481 0.798701 -70.7293 1.24369 -70.1588 1.81419C-69.5655 2.36187 -69.1205 3.03507 -68.8238 3.83377C-68.5044 4.60965 -68.3446 5.45399 -68.3446 6.36679C-68.3446 7.09703 -68.4473 7.87291 -68.6527 8.69444L-68.7554 9.1052H-71.6307L-71.528 8.69444C-71.4139 8.26085 -71.3455 7.88432 -71.3226 7.56484C-71.277 7.22254 -71.2542 6.89165 -71.2542 6.57217C-71.2542 5.36271 -71.6079 4.40427 -72.3153 3.69685C-72.9999 2.96661 -74.1181 2.60149 -75.6698 2.60149C-76.5827 2.60149 -77.4156 2.78405 -78.1686 3.14917C-78.9217 3.51429 -79.5949 4.02774 -80.1882 4.68952C-80.7815 5.32848 -81.295 6.10436 -81.7286 7.01716C-82.1393 7.90714 -82.4588 8.89982 -82.687 9.99518L-83.7481 14.9243C-83.8622 15.4492 -83.9535 15.9398 -84.022 16.3962C-84.0676 16.8526 -84.0904 17.2862 -84.0904 17.6969C-84.0904 19.2259 -83.7481 20.3669 -83.0635 21.1199C-82.3789 21.873 -81.295 22.2495 -79.8117 22.2495Z" fill="black"/>
<path d="M-64.7058 9.7898C-64.044 6.59499 -62.8802 4.16466 -61.2143 2.49879C-59.5257 0.832932 -57.2665 0 -54.4368 0C-52.2232 0 -50.5346 0.638961 -49.3707 1.91688C-48.1841 3.17199 -47.5908 4.91772 -47.5908 7.15408C-47.5908 7.61048 -47.625 8.10111 -47.6935 8.62598C-47.7391 9.12802 -47.819 9.64147 -47.9331 10.1663L-48.9942 15.1297C-49.656 18.3245 -50.8312 20.7548 -52.5199 22.4207C-54.1858 24.0866 -56.4335 24.9195 -59.2632 24.9195C-61.4768 24.9195 -63.1769 24.2919 -64.3635 23.0368C-65.5273 21.7589 -66.1092 20.0018 -66.1092 17.7654C-66.1092 17.309 -66.0864 16.8298 -66.0408 16.3277C-65.9723 15.8029 -65.881 15.278 -65.7669 14.7532L-64.7058 9.7898ZM-58.8525 22.318C-57.9168 22.318 -57.0725 22.1468 -56.3194 21.8045C-55.5436 21.4394 -54.8704 20.9374 -54.2999 20.2984C-53.7065 19.6366 -53.2159 18.8608 -52.828 17.9708C-52.4172 17.058 -52.0863 16.0425 -51.8353 14.9243L-50.7399 9.7898C-50.5574 8.877 -50.4661 8.07829 -50.4661 7.39369C-50.4661 5.91039 -50.8312 4.74657 -51.5615 3.90223C-52.2917 3.03507 -53.3871 2.60149 -54.8475 2.60149C-56.7416 2.60149 -58.2705 3.27468 -59.4344 4.62106C-60.5754 5.96744 -61.3855 7.75881 -61.8647 9.99518L-62.9601 15.1297C-63.1426 16.0425 -63.2339 16.8412 -63.2339 17.5258C-63.2339 19.0091 -62.8688 20.1843 -62.1385 21.0515C-61.4083 21.8958 -60.3129 22.318 -58.8525 22.318Z" fill="black"/>
<path d="M-33.9226 23.208H-33.5118L-28.6854 0.479221H-25.81L-30.9103 24.4403H-36.5583L-37.9275 1.7115H-38.3382L-43.1647 24.4403H-46.04L-40.9397 0.479221H-35.2918L-33.9226 23.208Z" fill="black"/>
<path d="M-21.8974 0.479221H-4.67965V3.14917H-11.6283L-16.1467 24.4403H-19.022L-14.5037 3.14917H-21.8974V0.479221Z" fill="black"/>
<path d="M9.87856 18.4842H0.259911L-2.64965 24.4403H-5.9015L5.97633 0.479221H11.4531L13.1646 24.4403H10.2551L9.87856 18.4842ZM1.56065 15.8143H9.70741L8.81742 1.74573H8.40666L1.56065 15.8143Z" fill="black"/>
<path d="M24.9844 22.2495C25.9657 22.2495 26.8215 22.1012 27.5517 21.8045C28.3048 21.5079 28.9437 21.0971 29.4686 20.5723C29.9934 20.0474 30.427 19.4199 30.7693 18.6896C31.1344 17.9366 31.4311 17.115 31.6593 16.225L31.762 15.8143H34.6373L34.5346 16.225C34.1923 17.5943 33.7587 18.8265 33.2339 19.9219C32.7318 20.9944 32.0929 21.9072 31.317 22.6603C30.5639 23.3905 29.6397 23.9496 28.5444 24.3376C27.449 24.7255 26.1483 24.9195 24.6421 24.9195C23.524 24.9195 22.5427 24.7597 21.6983 24.4403C20.854 24.1208 20.1352 23.6758 19.5419 23.1053C18.9714 22.512 18.5378 21.816 18.2411 21.0173C17.9445 20.2186 17.7961 19.3286 17.7961 18.3473C17.7961 17.8681 17.8189 17.3661 17.8646 16.8412C17.933 16.2935 18.0243 15.723 18.1384 15.1297L19.268 9.7898C19.9526 6.54935 21.1393 4.10761 22.8279 2.46456C24.5395 0.821521 26.7872 0 29.5713 0C30.6666 0 31.6365 0.15974 32.4808 0.479221C33.348 0.798701 34.0668 1.24369 34.6373 1.81419C35.2306 2.36187 35.6756 3.03507 35.9723 3.83377C36.2918 4.60965 36.4515 5.45399 36.4515 6.36679C36.4515 7.09703 36.3488 7.87291 36.1434 8.69444L36.0407 9.1052H33.1654L33.2681 8.69444C33.3822 8.26085 33.4507 7.88432 33.4735 7.56484C33.5191 7.22254 33.542 6.89165 33.542 6.57217C33.542 5.36271 33.1882 4.40427 32.4808 3.69685C31.7962 2.96661 30.678 2.60149 29.1263 2.60149C28.2135 2.60149 27.3805 2.78405 26.6275 3.14917C25.8744 3.51429 25.2012 4.02774 24.6079 4.68952C24.0146 5.32848 23.5011 6.10436 23.0676 7.01716C22.6568 7.90714 22.3373 8.89982 22.1091 9.99518L21.048 14.9243C20.9339 15.4492 20.8426 15.9398 20.7741 16.3962C20.7285 16.8526 20.7057 17.2862 20.7057 17.6969C20.7057 19.2259 21.048 20.3669 21.7326 21.1199C22.4172 21.873 23.5011 22.2495 24.9844 22.2495Z" fill="black"/>
<path d="M40.9803 0.479221H58.198V3.14917H51.2493L46.731 24.4403H43.8556L48.374 3.14917H40.9803V0.479221Z" fill="black"/>
<path d="M87.7083 52.3305C88.6896 52.3305 89.5453 52.1822 90.2756 51.8855C91.0286 51.5889 91.6676 51.1781 92.1925 50.6532C92.7173 50.1284 93.1509 49.5008 93.4932 48.7706C93.8583 48.0175 94.155 47.196 94.3832 46.306L94.4859 45.8953H97.3612L97.2585 46.306C96.9162 47.6752 96.4826 48.9075 95.9578 50.0029C95.4557 51.0754 94.8168 51.9882 94.0409 52.7413C93.2878 53.4715 92.3636 54.0306 91.2683 54.4185C90.1729 54.8065 88.8722 55.0004 87.366 55.0004C86.2478 55.0004 85.2666 54.8407 84.4222 54.5212C83.5779 54.2017 82.8591 53.7568 82.2658 53.1863C81.6953 52.5929 81.2617 51.8969 80.965 51.0982C80.6683 50.2995 80.52 49.4095 80.52 48.4283C80.52 47.9491 80.5428 47.447 80.5885 46.9222C80.6569 46.3745 80.7482 45.804 80.8623 45.2107L81.9919 39.8708C82.6765 36.6303 83.8632 34.1886 85.5518 32.5455C87.2633 30.9025 89.5111 30.081 92.2952 30.081C93.3905 30.081 94.3604 30.2407 95.2047 30.5602C96.0719 30.8797 96.7907 31.3247 97.3612 31.8952C97.9545 32.4428 98.3995 33.116 98.6962 33.9147C99.0157 34.6906 99.1754 35.535 99.1754 36.4478C99.1754 37.178 99.0727 37.9539 98.8673 38.7754L98.7646 39.1862H95.8893L95.992 38.7754C96.1061 38.3418 96.1746 37.9653 96.1974 37.6458C96.243 37.3035 96.2658 36.9726 96.2658 36.6531C96.2658 35.4437 95.9121 34.4852 95.2047 33.7778C94.5201 33.0476 93.4019 32.6824 91.8502 32.6824C90.9374 32.6824 90.1044 32.865 89.3514 33.2301C88.5983 33.5952 87.9251 34.1087 87.3318 34.7705C86.7385 35.4094 86.225 36.1853 85.7914 37.0981C85.3807 37.9881 85.0612 38.9808 84.833 40.0761L83.7719 45.0053C83.6578 45.5301 83.5665 46.0208 83.498 46.4772C83.4524 46.9336 83.4296 47.3671 83.4296 47.7779C83.4296 49.3068 83.7719 50.4478 84.4565 51.2009C85.1411 51.954 86.225 52.3305 87.7083 52.3305Z" fill="black"/>
<path d="M102.814 39.8708C103.476 36.676 104.64 34.2456 106.306 32.5798C107.994 30.9139 110.254 30.081 113.083 30.081C115.297 30.081 116.985 30.7199 118.149 31.9978C119.336 33.2529 119.929 34.9987 119.929 37.235C119.929 37.6914 119.895 38.1821 119.827 38.7069C119.781 39.209 119.701 39.7224 119.587 40.2473L118.526 45.2107C117.864 48.4055 116.689 50.8358 115 52.5017C113.334 54.1675 111.086 55.0004 108.257 55.0004C106.043 55.0004 104.343 54.3729 103.157 53.1178C101.993 51.8399 101.411 50.0827 101.411 47.8464C101.411 47.39 101.434 46.9107 101.479 46.4087C101.548 45.8838 101.639 45.359 101.753 44.8341L102.814 39.8708ZM108.668 52.399C109.603 52.399 110.448 52.2278 111.201 51.8855C111.976 51.5204 112.65 51.0184 113.22 50.3794C113.813 49.7176 114.304 48.9417 114.692 48.0517C115.103 47.1389 115.434 46.1234 115.685 45.0053L116.78 39.8708C116.963 38.958 117.054 38.1593 117.054 37.4747C117.054 35.9914 116.689 34.8275 115.959 33.9832C115.228 33.116 114.133 32.6824 112.672 32.6824C110.778 32.6824 109.249 33.3556 108.086 34.702C106.945 36.0484 106.135 37.8398 105.655 40.0761L104.56 45.2107C104.377 46.1235 104.286 46.9222 104.286 47.6068C104.286 49.0901 104.651 50.2653 105.381 51.1325C106.112 51.9768 107.207 52.399 108.668 52.399Z" fill="black"/>
<path d="M133.597 53.2889H134.008L138.835 30.5602H141.71L136.61 54.5212H130.962L129.593 31.7925H129.182L124.355 54.5212H121.48L126.58 30.5602H132.228L133.597 53.2889Z" fill="black"/>
<path d="M145.623 30.5602H162.84V33.2301H155.892L151.373 54.5212H148.498L153.016 33.2301H145.623V30.5602Z" fill="black"/>
<path d="M177.399 48.5652H167.78L164.87 54.5212H161.619L173.496 30.5602H178.973L180.685 54.5212H177.775L177.399 48.5652ZM169.081 45.8953H177.227L176.337 31.8267H175.927L169.081 45.8953Z" fill="black"/>
<path d="M192.504 52.3305C193.486 52.3305 194.341 52.1822 195.072 51.8855C195.825 51.5889 196.464 51.1781 196.989 50.6532C197.513 50.1284 197.947 49.5008 198.289 48.7706C198.654 48.0175 198.951 47.196 199.179 46.306L199.282 45.8953H202.157L202.055 46.306C201.712 47.6752 201.279 48.9075 200.754 50.0029C200.252 51.0754 199.613 51.9882 198.837 52.7413C198.084 53.4715 197.16 54.0306 196.064 54.4185C194.969 54.8065 193.668 55.0004 192.162 55.0004C191.044 55.0004 190.063 54.8407 189.218 54.5212C188.374 54.2017 187.655 53.7568 187.062 53.1863C186.491 52.5929 186.058 51.8969 185.761 51.0982C185.464 50.2995 185.316 49.4095 185.316 48.4283C185.316 47.9491 185.339 47.447 185.385 46.9222C185.453 46.3745 185.544 45.804 185.658 45.2107L186.788 39.8708C187.473 36.6303 188.659 34.1886 190.348 32.5455C192.059 30.9025 194.307 30.081 197.091 30.081C198.187 30.081 199.157 30.2407 200.001 30.5602C200.868 30.8797 201.587 31.3247 202.157 31.8952C202.751 32.4428 203.196 33.116 203.492 33.9147C203.812 34.6906 203.972 35.535 203.972 36.4478C203.972 37.178 203.869 37.9539 203.663 38.7754L203.561 39.1862H200.685L200.788 38.7754C200.902 38.3418 200.971 37.9653 200.994 37.6458C201.039 37.3035 201.062 36.9726 201.062 36.6531C201.062 35.4437 200.708 34.4852 200.001 33.7778C199.316 33.0476 198.198 32.6824 196.646 32.6824C195.733 32.6824 194.901 32.865 194.147 33.2301C193.394 33.5952 192.721 34.1087 192.128 34.7705C191.535 35.4094 191.021 36.1853 190.588 37.0981C190.177 37.9881 189.857 38.9808 189.629 40.0761L188.568 45.0053C188.454 45.5301 188.363 46.0208 188.294 46.4772C188.249 46.9336 188.226 47.3671 188.226 47.7779C188.226 49.3068 188.568 50.4478 189.253 51.2009C189.937 51.954 191.021 52.3305 192.504 52.3305Z" fill="black"/>
<path d="M208.5 30.5602H225.718V33.2301H218.769L214.251 54.5212H211.376L215.894 33.2301H208.5V30.5602Z" fill="black"/>
<path d="M66.9627 22.2495C67.944 22.2495 68.7997 22.1012 69.53 21.8045C70.283 21.5079 70.922 21.0971 71.4469 20.5723C71.9717 20.0474 72.4053 19.4199 72.7476 18.6896C73.1127 17.9366 73.4094 17.115 73.6376 16.225L73.7403 15.8143H76.6156L76.5129 16.225C76.1706 17.5943 75.737 18.8265 75.2122 19.9219C74.7101 20.9944 74.0712 21.9072 73.2953 22.6603C72.5422 23.3905 71.618 23.9496 70.5227 24.3376C69.4273 24.7255 68.1265 24.9195 66.6204 24.9195C65.5022 24.9195 64.521 24.7597 63.6766 24.4403C62.8323 24.1208 62.1135 23.6758 61.5201 23.1053C60.9496 22.512 60.5161 21.816 60.2194 21.0173C59.9227 20.2186 59.7744 19.3286 59.7744 18.3473C59.7744 17.8681 59.7972 17.3661 59.8429 16.8412C59.9113 16.2935 60.0026 15.723 60.1167 15.1297L61.2463 9.7898C61.9309 6.54935 63.1175 4.10761 64.8062 2.46456C66.5177 0.821521 68.7655 0 71.5496 0C72.6449 0 73.6148 0.15974 74.4591 0.479221C75.3263 0.798701 76.0451 1.24369 76.6156 1.81419C77.2089 2.36187 77.6539 3.03507 77.9506 3.83377C78.2701 4.60965 78.4298 5.45399 78.4298 6.36679C78.4298 7.09703 78.3271 7.87291 78.1217 8.69444L78.019 9.1052H75.1437L75.2464 8.69444C75.3605 8.26085 75.429 7.88432 75.4518 7.56484C75.4974 7.22254 75.5202 6.89165 75.5202 6.57217C75.5202 5.36271 75.1665 4.40427 74.4591 3.69685C73.7745 2.96661 72.6563 2.60149 71.1046 2.60149C70.1918 2.60149 69.3588 2.78405 68.6058 3.14917C67.8527 3.51429 67.1795 4.02774 66.5862 4.68952C65.9929 5.32848 65.4794 6.10436 65.0458 7.01716C64.6351 7.90714 64.3156 8.89982 64.0874 9.99518L63.0263 14.9243C62.9122 15.4492 62.8209 15.9398 62.7524 16.3962C62.7068 16.8526 62.684 17.2862 62.684 17.6969C62.684 19.2259 63.0263 20.3669 63.7109 21.1199C64.3955 21.873 65.4794 22.2495 66.9627 22.2495Z" fill="black"/>
<path d="M82.0686 9.7898C82.7304 6.59499 83.8942 4.16466 85.5601 2.49879C87.2488 0.832932 89.5079 0 92.3376 0C94.5512 0 96.2399 0.638961 97.4037 1.91688C98.5903 3.17199 99.1836 4.91772 99.1836 7.15408C99.1836 7.61048 99.1494 8.10111 99.0809 8.62598C99.0353 9.12802 98.9554 9.64147 98.8413 10.1663L97.7802 15.1297C97.1184 18.3245 95.9432 20.7548 94.2545 22.4207C92.5886 24.0866 90.3409 24.9195 87.5112 24.9195C85.2976 24.9195 83.5976 24.2919 82.4109 23.0368C81.2471 21.7589 80.6652 20.0018 80.6652 17.7654C80.6652 17.309 80.688 16.8298 80.7336 16.3277C80.8021 15.8029 80.8934 15.278 81.0075 14.7532L82.0686 9.7898ZM87.922 22.318C88.8576 22.318 89.7019 22.1468 90.455 21.8045C91.2309 21.4394 91.904 20.9374 92.4746 20.2984C93.0679 19.6366 93.5585 18.8608 93.9464 17.9708C94.3572 17.058 94.6881 16.0425 94.9391 14.9243L96.0345 9.7898C96.217 8.877 96.3083 8.07829 96.3083 7.39369C96.3083 5.91039 95.9432 4.74657 95.213 3.90223C94.4827 3.03507 93.3874 2.60149 91.9269 2.60149C90.0328 2.60149 88.5039 3.27468 87.34 4.62106C86.199 5.96744 85.3889 7.75881 84.9097 9.99518L83.8143 15.1297C83.6318 16.0425 83.5405 16.8412 83.5405 17.5258C83.5405 19.0091 83.9056 20.1843 84.6359 21.0515C85.3661 21.8958 86.4615 22.318 87.922 22.318Z" fill="black"/>
<path d="M112.852 23.208H113.263L118.089 0.479221H120.964L115.864 24.4403H110.216L108.847 1.7115H108.436L103.61 24.4403H100.734L105.835 0.479221H111.483L112.852 23.208Z" fill="black"/>
<path d="M124.877 0.479221H142.095V3.14917H135.146L130.628 24.4403H127.752L132.271 3.14917H124.877V0.479221Z" fill="black"/>
<path d="M156.653 18.4842H147.034L144.125 24.4403H140.873L152.751 0.479221H158.228L159.939 24.4403H157.03L156.653 18.4842ZM148.335 15.8143H156.482L155.592 1.74573H155.181L148.335 15.8143Z" fill="black"/>
<path d="M171.759 22.2495C172.74 22.2495 173.596 22.1012 174.326 21.8045C175.079 21.5079 175.718 21.0971 176.243 20.5723C176.768 20.0474 177.201 19.4199 177.544 18.6896C177.909 17.9366 178.206 17.115 178.434 16.225L178.536 15.8143H181.412L181.309 16.225C180.967 17.5943 180.533 18.8265 180.008 19.9219C179.506 20.9944 178.867 21.9072 178.091 22.6603C177.338 23.3905 176.414 23.9496 175.319 24.3376C174.223 24.7255 172.923 24.9195 171.417 24.9195C170.298 24.9195 169.317 24.7597 168.473 24.4403C167.628 24.1208 166.91 23.6758 166.316 23.1053C165.746 22.512 165.312 21.816 165.016 21.0173C164.719 20.2186 164.571 19.3286 164.571 18.3473C164.571 17.8681 164.593 17.3661 164.639 16.8412C164.707 16.2935 164.799 15.723 164.913 15.1297L166.042 9.7898C166.727 6.54935 167.914 4.10761 169.602 2.46456C171.314 0.821521 173.562 0 176.346 0C177.441 0 178.411 0.15974 179.255 0.479221C180.122 0.798701 180.841 1.24369 181.412 1.81419C182.005 2.36187 182.45 3.03507 182.747 3.83377C183.066 4.60965 183.226 5.45399 183.226 6.36679C183.226 7.09703 183.123 7.87291 182.918 8.69444L182.815 9.1052H179.94L180.043 8.69444C180.157 8.26085 180.225 7.88432 180.248 7.56484C180.294 7.22254 180.316 6.89165 180.316 6.57217C180.316 5.36271 179.963 4.40427 179.255 3.69685C178.571 2.96661 177.452 2.60149 175.901 2.60149C174.988 2.60149 174.155 2.78405 173.402 3.14917C172.649 3.51429 171.976 4.02774 171.382 4.68952C170.789 5.32848 170.276 6.10436 169.842 7.01716C169.431 7.90714 169.112 8.89982 168.884 9.99518L167.822 14.9243C167.708 15.4492 167.617 15.9398 167.549 16.3962C167.503 16.8526 167.48 17.2862 167.48 17.6969C167.48 19.2259 167.822 20.3669 168.507 21.1199C169.192 21.873 170.276 22.2495 171.759 22.2495Z" fill="black"/>
<path d="M187.755 0.479221H204.972V3.14917H198.024L193.505 24.4403H190.63L195.148 3.14917H187.755V0.479221Z" fill="black"/>
<path d="M234.482 52.3305C235.464 52.3305 236.319 52.1822 237.05 51.8855C237.803 51.5889 238.442 51.1781 238.966 50.6532C239.491 50.1284 239.925 49.5008 240.267 48.7706C240.632 48.0175 240.929 47.196 241.157 46.306L241.26 45.8953H244.135L244.032 46.306C243.69 47.6752 243.257 48.9075 242.732 50.0029C242.23 51.0754 241.591 51.9882 240.815 52.7413C240.062 53.4715 239.138 54.0306 238.042 54.4185C236.947 54.8065 235.646 55.0004 234.14 55.0004C233.022 55.0004 232.041 54.8407 231.196 54.5212C230.352 54.2017 229.633 53.7568 229.04 53.1863C228.469 52.5929 228.036 51.8969 227.739 51.0982C227.442 50.2995 227.294 49.4095 227.294 48.4283C227.294 47.9491 227.317 47.447 227.362 46.9222C227.431 46.3745 227.522 45.804 227.636 45.2107L228.766 39.8708C229.45 36.6303 230.637 34.1886 232.326 32.5455C234.037 30.9025 236.285 30.081 239.069 30.081C240.164 30.081 241.134 30.2407 241.979 30.5602C242.846 30.8797 243.565 31.3247 244.135 31.8952C244.728 32.4428 245.173 33.116 245.47 33.9147C245.79 34.6906 245.949 35.535 245.949 36.4478C245.949 37.178 245.847 37.9539 245.641 38.7754L245.539 39.1862H242.663L242.766 38.7754C242.88 38.3418 242.948 37.9653 242.971 37.6458C243.017 37.3035 243.04 36.9726 243.04 36.6531C243.04 35.4437 242.686 34.4852 241.979 33.7778C241.294 33.0476 240.176 32.6824 238.624 32.6824C237.711 32.6824 236.878 32.865 236.125 33.2301C235.372 33.5952 234.699 34.1087 234.106 34.7705C233.512 35.4094 232.999 36.1853 232.565 37.0981C232.155 37.9881 231.835 38.9808 231.607 40.0761L230.546 45.0053C230.432 45.5301 230.34 46.0208 230.272 46.4772C230.226 46.9336 230.204 47.3671 230.204 47.7779C230.204 49.3068 230.546 50.4478 231.23 51.2009C231.915 51.954 232.999 52.3305 234.482 52.3305Z" fill="black"/>
<path d="M249.588 39.8708C250.25 36.676 251.414 34.2456 253.08 32.5798C254.768 30.9139 257.027 30.081 259.857 30.081C262.071 30.081 263.759 30.7199 264.923 31.9978C266.11 33.2529 266.703 34.9987 266.703 37.235C266.703 37.6914 266.669 38.1821 266.6 38.7069C266.555 39.209 266.475 39.7224 266.361 40.2473L265.3 45.2107C264.638 48.4055 263.463 50.8358 261.774 52.5017C260.108 54.1675 257.86 55.0004 255.031 55.0004C252.817 55.0004 251.117 54.3729 249.93 53.1178C248.767 51.8399 248.185 50.0827 248.185 47.8464C248.185 47.39 248.208 46.9107 248.253 46.4087C248.322 45.8838 248.413 45.359 248.527 44.8341L249.588 39.8708ZM255.441 52.399C256.377 52.399 257.221 52.2278 257.975 51.8855C258.75 51.5204 259.424 51.0184 259.994 50.3794C260.587 49.7176 261.078 48.9417 261.466 48.0517C261.877 47.1389 262.208 46.1234 262.459 45.0053L263.554 39.8708C263.737 38.958 263.828 38.1593 263.828 37.4747C263.828 35.9914 263.463 34.8275 262.732 33.9832C262.002 33.116 260.907 32.6824 259.446 32.6824C257.552 32.6824 256.023 33.3556 254.86 34.702C253.719 36.0484 252.908 37.8398 252.429 40.0761L251.334 45.2107C251.151 46.1235 251.06 46.9222 251.06 47.6068C251.06 49.0901 251.425 50.2653 252.155 51.1325C252.886 51.9768 253.981 52.399 255.441 52.399Z" fill="black"/>
<path d="M280.371 53.2889H280.782L285.609 30.5602H288.484L283.384 54.5212H277.736L276.366 31.7925H275.956L271.129 54.5212H268.254L273.354 30.5602H279.002L280.371 53.2889Z" fill="black"/>
<path d="M292.397 30.5602H309.614V33.2301H302.666L298.147 54.5212H295.272L299.79 33.2301H292.397V30.5602Z" fill="black"/>
<path d="M324.173 48.5652H314.554L311.644 54.5212H308.392L320.27 30.5602H325.747L327.459 54.5212H324.549L324.173 48.5652ZM315.855 45.8953H324.001L323.111 31.8267H322.701L315.855 45.8953Z" fill="black"/>
<path d="M339.278 52.3305C340.26 52.3305 341.115 52.1822 341.846 51.8855C342.599 51.5889 343.238 51.1781 343.763 50.6532C344.287 50.1284 344.721 49.5008 345.063 48.7706C345.428 48.0175 345.725 47.196 345.953 46.306L346.056 45.8953H348.931L348.829 46.306C348.486 47.6752 348.053 48.9075 347.528 50.0029C347.026 51.0754 346.387 51.9882 345.611 52.7413C344.858 53.4715 343.934 54.0306 342.838 54.4185C341.743 54.8065 340.442 55.0004 338.936 55.0004C337.818 55.0004 336.837 54.8407 335.992 54.5212C335.148 54.2017 334.429 53.7568 333.836 53.1863C333.265 52.5929 332.832 51.8969 332.535 51.0982C332.238 50.2995 332.09 49.4095 332.09 48.4283C332.09 47.9491 332.113 47.447 332.159 46.9222C332.227 46.3745 332.318 45.804 332.432 45.2107L333.562 39.8708C334.247 36.6303 335.433 34.1886 337.122 32.5455C338.833 30.9025 341.081 30.081 343.865 30.081C344.961 30.081 345.93 30.2407 346.775 30.5602C347.642 30.8797 348.361 31.3247 348.931 31.8952C349.525 32.4428 349.97 33.116 350.266 33.9147C350.586 34.6906 350.745 35.535 350.745 36.4478C350.745 37.178 350.643 37.9539 350.437 38.7754L350.335 39.1862H347.459L347.562 38.7754C347.676 38.3418 347.745 37.9653 347.767 37.6458C347.813 37.3035 347.836 36.9726 347.836 36.6531C347.836 35.4437 347.482 34.4852 346.775 33.7778C346.09 33.0476 344.972 32.6824 343.42 32.6824C342.507 32.6824 341.674 32.865 340.921 33.2301C340.168 33.5952 339.495 34.1087 338.902 34.7705C338.309 35.4094 337.795 36.1853 337.361 37.0981C336.951 37.9881 336.631 38.9808 336.403 40.0761L335.342 45.0053C335.228 45.5301 335.137 46.0208 335.068 46.4772C335.022 46.9336 335 47.3671 335 47.7779C335 49.3068 335.342 50.4478 336.027 51.2009C336.711 51.954 337.795 52.3305 339.278 52.3305Z" fill="black"/>
<path d="M355.274 30.5602H372.492V33.2301H365.543L361.025 54.5212H358.15L362.668 33.2301H355.274V30.5602Z" fill="black"/>
<path d="M213.737 22.2495C214.718 22.2495 215.574 22.1012 216.304 21.8045C217.057 21.5079 217.696 21.0971 218.221 20.5723C218.746 20.0474 219.18 19.4199 219.522 18.6896C219.887 17.9366 220.184 17.115 220.412 16.225L220.515 15.8143H223.39L223.287 16.225C222.945 17.5943 222.511 18.8265 221.987 19.9219C221.485 20.9944 220.846 21.9072 220.07 22.6603C219.317 23.3905 218.392 23.9496 217.297 24.3376C216.202 24.7255 214.901 24.9195 213.395 24.9195C212.277 24.9195 211.295 24.7597 210.451 24.4403C209.607 24.1208 208.888 23.6758 208.295 23.1053C207.724 22.512 207.29 21.816 206.994 21.0173C206.697 20.2186 206.549 19.3286 206.549 18.3473C206.549 17.8681 206.572 17.3661 206.617 16.8412C206.686 16.2935 206.777 15.723 206.891 15.1297L208.021 9.7898C208.705 6.54935 209.892 4.10761 211.581 2.46456C213.292 0.821521 215.54 0 218.324 0C219.419 0 220.389 0.15974 221.234 0.479221C222.101 0.798701 222.82 1.24369 223.39 1.81419C223.983 2.36187 224.428 3.03507 224.725 3.83377C225.044 4.60965 225.204 5.45399 225.204 6.36679C225.204 7.09703 225.102 7.87291 224.896 8.69444L224.793 9.1052H221.918L222.021 8.69444C222.135 8.26085 222.203 7.88432 222.226 7.56484C222.272 7.22254 222.295 6.89165 222.295 6.57217C222.295 5.36271 221.941 4.40427 221.234 3.69685C220.549 2.96661 219.431 2.60149 217.879 2.60149C216.966 2.60149 216.133 2.78405 215.38 3.14917C214.627 3.51429 213.954 4.02774 213.361 4.68952C212.767 5.32848 212.254 6.10436 211.82 7.01716C211.409 7.90714 211.09 8.89982 210.862 9.99518L209.801 14.9243C209.687 15.4492 209.595 15.9398 209.527 16.3962C209.481 16.8526 209.458 17.2862 209.458 17.6969C209.458 19.2259 209.801 20.3669 210.485 21.1199C211.17 21.873 212.254 22.2495 213.737 22.2495Z" fill="black"/>
<path d="M228.843 9.7898C229.505 6.59499 230.669 4.16466 232.334 2.49879C234.023 0.832932 236.282 0 239.112 0C241.326 0 243.014 0.638961 244.178 1.91688C245.365 3.17199 245.958 4.91772 245.958 7.15408C245.958 7.61048 245.924 8.10111 245.855 8.62598C245.81 9.12802 245.73 9.64147 245.616 10.1663L244.555 15.1297C243.893 18.3245 242.718 20.7548 241.029 22.4207C239.363 24.0866 237.115 24.9195 234.286 24.9195C232.072 24.9195 230.372 24.2919 229.185 23.0368C228.022 21.7589 227.44 20.0018 227.44 17.7654C227.44 17.309 227.462 16.8298 227.508 16.3277C227.577 15.8029 227.668 15.278 227.782 14.7532L228.843 9.7898ZM234.696 22.318C235.632 22.318 236.476 22.1468 237.229 21.8045C238.005 21.4394 238.678 20.9374 239.249 20.2984C239.842 19.6366 240.333 18.8608 240.721 17.9708C241.132 17.058 241.463 16.0425 241.714 14.9243L242.809 9.7898C242.991 8.877 243.083 8.07829 243.083 7.39369C243.083 5.91039 242.718 4.74657 241.987 3.90223C241.257 3.03507 240.162 2.60149 238.701 2.60149C236.807 2.60149 235.278 3.27468 234.114 4.62106C232.973 5.96744 232.163 7.75881 231.684 9.99518L230.589 15.1297C230.406 16.0425 230.315 16.8412 230.315 17.5258C230.315 19.0091 230.68 20.1843 231.41 21.0515C232.141 21.8958 233.236 22.318 234.696 22.318Z" fill="black"/>
<path d="M259.626 23.208H260.037L264.863 0.479221H267.739L262.639 24.4403H256.991L255.621 1.7115H255.211L250.384 24.4403H247.509L252.609 0.479221H258.257L259.626 23.208Z" fill="black"/>
<path d="M271.651 0.479221H288.869V3.14917H281.92L277.402 24.4403H274.527L279.045 3.14917H271.651V0.479221Z" fill="black"/>
<path d="M303.427 18.4842H293.809L290.899 24.4403H287.647L299.525 0.479221H305.002L306.713 24.4403H303.804L303.427 18.4842ZM295.109 15.8143H303.256L302.366 1.74573H301.955L295.109 15.8143Z" fill="black"/>
<path d="M318.533 22.2495C319.515 22.2495 320.37 22.1012 321.101 21.8045C321.854 21.5079 322.493 21.0971 323.017 20.5723C323.542 20.0474 323.976 19.4199 324.318 18.6896C324.683 17.9366 324.98 17.115 325.208 16.225L325.311 15.8143H328.186L328.083 16.225C327.741 17.5943 327.308 18.8265 326.783 19.9219C326.281 20.9944 325.642 21.9072 324.866 22.6603C324.113 23.3905 323.189 23.9496 322.093 24.3376C320.998 24.7255 319.697 24.9195 318.191 24.9195C317.073 24.9195 316.092 24.7597 315.247 24.4403C314.403 24.1208 313.684 23.6758 313.091 23.1053C312.52 22.512 312.087 21.816 311.79 21.0173C311.493 20.2186 311.345 19.3286 311.345 18.3473C311.345 17.8681 311.368 17.3661 311.413 16.8412C311.482 16.2935 311.573 15.723 311.687 15.1297L312.817 9.7898C313.501 6.54935 314.688 4.10761 316.377 2.46456C318.088 0.821521 320.336 0 323.12 0C324.215 0 325.185 0.15974 326.03 0.479221C326.897 0.798701 327.616 1.24369 328.186 1.81419C328.779 2.36187 329.224 3.03507 329.521 3.83377C329.841 4.60965 330 5.45399 330 6.36679C330 7.09703 329.898 7.87291 329.692 8.69444L329.59 9.1052H326.714L326.817 8.69444C326.931 8.26085 327 7.88432 327.022 7.56484C327.068 7.22254 327.091 6.89165 327.091 6.57217C327.091 5.36271 326.737 4.40427 326.03 3.69685C325.345 2.96661 324.227 2.60149 322.675 2.60149C321.762 2.60149 320.929 2.78405 320.176 3.14917C319.423 3.51429 318.75 4.02774 318.157 4.68952C317.563 5.32848 317.05 6.10436 316.616 7.01716C316.206 7.90714 315.886 8.89982 315.658 9.99518L314.597 14.9243C314.483 15.4492 314.391 15.9398 314.323 16.3962C314.277 16.8526 314.255 17.2862 314.255 17.6969C314.255 19.2259 314.597 20.3669 315.281 21.1199C315.966 21.873 317.05 22.2495 318.533 22.2495Z" fill="black"/>
<path d="M334.529 0.479221H351.747V3.14917H344.798L340.28 24.4403H337.404L341.923 3.14917H334.529V0.479221Z" fill="black"/>
</svg>
